<svg width="11" height="22" viewBox="0 0 11 22" fill="none" xmlns="http://www.w3.org/2000/svg">
<path d="M0.192303 21.4615L0 19.8385L2.71537 12.3539C2.90768 12.5295 3.1128 12.6741 3.33074 12.7875C3.54869 12.901 3.77945 12.9898 4.02303 13.0539L1.38843 20.3154L0.192303 21.4615ZM10.3077 21.4615L9.11154 20.3154L6.47693 13.0539C6.72051 12.9898 6.95128 12.901 7.16922 12.7875C7.38716 12.6741 7.59229 12.5295 7.78459 12.3539L10.5 19.8385L10.3077 21.4615ZM5.24998 11.75C4.48717 11.75 3.83813 11.4824 3.30288 10.9471C2.76763 10.4118 2.5 9.76282 2.5 9C2.5 8.35 2.69551 7.78846 3.08654 7.31539C3.47757 6.84231 3.94872 6.53463 4.5 6.39232V4H5.99996V6.39232C6.55124 6.53463 7.0224 6.84231 7.41342 7.31539C7.80445 7.78846 7.99996 8.35 7.99996 9C7.99996 9.76282 7.73234 10.4118 7.19708 10.9471C6.66183 11.4824 6.0128 11.75 5.24998 11.75ZM5.24998 10.25C5.59742 10.25 5.89262 10.1285 6.13557 9.88559C6.37852 9.64264 6.5 9.34744 6.5 9C6.5 8.65256 6.37852 8.35736 6.13557 8.11441C5.89262 7.87146 5.59742 7.74998 5.24998 7.74998C4.90254 7.74998 4.60734 7.87146 4.36439 8.11441C4.12144 8.35736 3.99996 8.65256 3.99996 9C3.99996 9.34744 4.12144 9.64264 4.36439 9.88559C4.60734 10.1285 4.90254 10.25 5.24998 10.25Z" fill="#FFB700"/>
</svg>
