<svg width="17" height="21" viewBox="0 0 17 21" fill="none" xmlns="http://www.w3.org/2000/svg">
<path d="M3.86537 17.2499H5.36534V12.5H3.86537V17.2499ZM11.6346 17.2499H13.1346V7.49996H11.6346V17.2499ZM7.74998 17.2499H9.24994V14.5H7.74998V17.2499ZM7.74998 12.5H9.24994V10.5H7.74998V12.5ZM1.80768 20.9999C1.30255 20.9999 0.874992 20.8249 0.524995 20.4749C0.174998 20.1249 0 19.6974 0 19.1922V5.80768C0 5.30255 0.174998 4.87499 0.524995 4.525C0.874992 4.175 1.30255 4 1.80768 4H15.1922C15.6974 4 16.1249 4.175 16.4749 4.525C16.8249 4.87499 16.9999 5.30255 16.9999 5.80768V19.1922C16.9999 19.6974 16.8249 20.1249 16.4749 20.4749C16.1249 20.8249 15.6974 20.9999 15.1922 20.9999H1.80768ZM1.80768 19.5H15.1922C15.2692 19.5 15.3397 19.4679 15.4038 19.4038C15.4679 19.3397 15.5 19.2692 15.5 19.1922V5.80768C15.5 5.73075 15.4679 5.66023 15.4038 5.59612C15.3397 5.53202 15.2692 5.49996 15.1922 5.49996H1.80768C1.73075 5.49996 1.66023 5.53202 1.59612 5.59612C1.53202 5.66023 1.49996 5.73075 1.49996 5.80768V19.1922C1.49996 19.2692 1.53202 19.3397 1.59612 19.4038C1.66023 19.4679 1.73075 19.5 1.80768 19.5ZM1.49996 5.49996C1.49996 5.49996 1.49996 5.52881 1.49996 5.58651C1.49996 5.6442 1.49996 5.71793 1.49996 5.80768V19.1922C1.49996 19.282 1.49996 19.3557 1.49996 19.4134C1.49996 19.4711 1.49996 19.5 1.49996 19.5C1.49996 19.5 1.49996 19.4711 1.49996 19.4134C1.49996 19.3557 1.49996 19.282 1.49996 19.1922V5.80768C1.49996 5.71793 1.49996 5.6442 1.49996 5.58651C1.49996 5.52881 1.49996 5.49996 1.49996 5.49996Z" fill="#FFB700"/>
</svg>
