<svg width="39" height="45" viewBox="0 0 39 45" fill="none" xmlns="http://www.w3.org/2000/svg">
<path d="M39 14.4298V7.38772C39 3.31448 35.276 0 30.6962 0C26.1179 0 22.3924 3.31448 22.3924 7.38772V14.7795C22.3924 16.1984 21.0949 17.3528 19.5 17.3528C17.9051 17.3528 16.6076 16.1984 16.6076 14.7795V7.38772C16.6076 3.31448 12.8837 0 8.30381 0C3.72549 0 0 3.31448 0 7.38772V14.4298C0 17.3096 0.81035 20.0624 2.25805 22.4899C0.778482 24.9686 0 27.7417 0 30.5688V37.6109C0 41.6842 3.72549 44.9986 8.30381 44.9986C12.8821 44.9986 16.6076 41.6842 16.6076 37.6109V30.2192C16.6076 28.8002 17.9051 27.6459 19.5 27.6459C21.0949 27.6459 22.3924 28.8002 22.3924 30.2192V37.6109C22.3924 41.6842 26.1179 44.9986 30.6962 44.9986C35.2745 44.9986 39 41.6842 39 37.6109V30.5688C39 27.6891 38.1896 24.9362 36.7419 22.5088C38.223 20.0314 39 17.2583 39 14.4298ZM30.6962 3.32123C33.2168 3.32123 35.2684 5.14521 35.2684 7.38907V14.4312C35.2684 16.1066 34.9285 17.7564 34.2775 19.305C32.1272 17.0881 29.3395 15.3519 26.1239 14.3367V7.38772C26.1254 5.14521 28.1756 3.32123 30.6962 3.32123ZM8.30381 41.6788C5.78323 41.6788 3.73156 39.8548 3.73156 37.6109V30.5688C3.73156 28.8934 4.07148 27.2436 4.72249 25.695C6.8728 27.9105 9.66047 29.6481 12.8761 30.6633V37.6109C12.8761 39.8548 10.8244 41.6788 8.30381 41.6788ZM35.2684 37.6123C35.2684 39.8548 33.2183 41.6801 30.6962 41.6801C28.1756 41.6801 26.1239 39.8561 26.1239 37.6123V30.2205C26.1239 26.9708 23.1526 24.3274 19.5 24.3274C16.9991 24.3274 14.817 25.5681 13.6895 27.3934C7.75296 25.3386 3.73156 20.1988 3.73156 14.4325V7.39042C3.73156 5.14791 5.78171 3.32258 8.30381 3.32258C10.8244 3.32258 12.8761 5.14791 12.8761 7.39042V14.7822C12.8761 18.0319 15.8474 20.6753 19.5 20.6753C22.0009 20.6753 24.183 19.4346 25.3105 17.6093C31.247 19.6641 35.2684 24.8039 35.2684 30.5702V37.6123Z" fill="#C4C8CA"/>
</svg>
